<svg viewBox="0 0 45 52" fill="none" xmlns="http://www.w3.org/2000/svg">
<path d="M11 6V46C13.9769 45.6357 16.5908 45.4171 18.8416 45.3443V8.84153M25.1584 30.5902V6H33V46" fill="url(#paint0_linear_39_2)"/>
<path d="M11 6V46C13.9769 45.6357 16.5908 45.4171 18.8416 45.3443V8.84153M25.1584 30.5902V6H33V46" fill="url(#paint1_linear_39_2)"/>
<path d="M11 6V46C13.9769 45.6357 16.5908 45.4171 18.8416 45.3443V8.84153M25.1584 30.5902V6H33V46" fill="#4C4D62"/>
<path d="M11 6H18.8416L33 46C30.0231 45.6357 27.3366 45.4171 24.9406 45.3443" fill="#656685"/>
<defs>
<linearGradient id="paint0_linear_39_2" x1="17.38" y1="30.4" x2="28.2528" y2="27.2676" gradientUnits="userSpaceOnUse">
<stop stop-color="#B1060F"/>
<stop offset="0.5"/>
<stop offset="1" stop-color="#B1060F"/>
</linearGradient>
<linearGradient id="paint1_linear_39_2" x1="22.0006" y1="6" x2="22.0006" y2="46" gradientUnits="userSpaceOnUse">
<stop stop-color="#3B3C4A"/>
<stop offset="1" stop-color="#353541"/>
</linearGradient>
</defs>
</svg>
