<svg xmlns="http://www.w3.org/2000/svg" fill="none" viewBox="0 0 55 52"><path fill="url(#spot-elasti_svg__a)" fill-rule="evenodd" d="M22.727 40.385c-1.369-.822-2.606-1.65-3.843-2.745l-3.23 3.217c-.843.84-.843 2.239 0 3.218.42.42 1.123.7 1.685.7a2.33 2.33 0 0 0 1.685-.7l3.74-3.587c7.712 4.417 17.772 3.282 24.348-3.269a19.794 19.794 0 0 0 0-28.4c-7.865-7.834-20.646-7.834-28.51 0-5.478 5.456-7.163 13.151-4.776 20.146l12.219-12.451c.843-.84 2.247-.84 3.23 0 .843.84.843 2.238 0 3.218l-13.622 13.71c-.982-1.539-1.544-2.938-1.965-4.616L2.733 39.88a2.124 2.124 0 0 0 0 3.217c.562.42 1.124.7 1.686.7s1.264-.28 1.685-.7l9.55-9.652c.701 1.259 1.825 2.657 2.948 3.775l.42.42 8.99-9.094c.842-.979 2.387-.839 3.23 0 .982.98.982 2.519 0 3.358z" clip-rule="evenodd"/><defs><linearGradient id="spot-elasti_svg__a" x1="12" x2="47" y1="6.999" y2="38.499" gradientUnits="userSpaceOnUse"><stop stop-color="#2B2B38"/><stop offset="1" stop-color="#282834"/></linearGradient></defs></svg>