<svg viewBox="0 0 58 52" fill="none" xmlns="http://www.w3.org/2000/svg">
<path d="M29 7.14431C35.1412 7.14431 35.8686 7.16767 38.2938 7.27818C40.5363 7.3806 41.7542 7.75525 42.5648 8.07024C43.6382 8.48748 44.4044 8.98593 45.2092 9.79075C46.0142 10.5956 46.5125 11.3618 46.9298 12.4352C47.2448 13.2458 47.6194 14.4637 47.7218 16.706C47.8323 19.1314 47.8557 19.8588 47.8557 26C47.8557 32.1414 47.8323 32.8687 47.7218 35.294C47.6194 37.5365 47.2448 38.7542 46.9298 39.5648C46.5125 40.6382 46.0141 41.4046 45.2092 42.2094C44.4044 43.0142 43.6382 43.5127 42.5648 43.9298C41.7542 44.2448 40.5363 44.6196 38.2938 44.7218C35.8689 44.8325 35.1415 44.8559 29 44.8559C22.8583 44.8559 22.1309 44.8325 19.706 44.7218C17.4635 44.6194 16.2458 44.2448 15.4352 43.9298C14.3618 43.5127 13.5954 43.0142 12.7906 42.2094C11.9858 41.4044 11.4873 40.6382 11.0702 39.5648C10.7552 38.7544 10.3804 37.5365 10.2782 35.294C10.1675 32.8687 10.1441 32.1414 10.1441 26C10.1441 19.8588 10.1675 19.1314 10.2782 16.7062C10.3806 14.4637 10.7552 13.2458 11.0702 12.4352C11.4873 11.3618 11.9858 10.5956 12.7906 9.79075C13.5956 8.98575 14.3618 8.48748 15.4352 8.07024C16.2456 7.75525 17.4635 7.3806 19.706 7.27818C22.1313 7.16767 22.8586 7.14431 29 7.14431ZM29 3C22.7535 3 21.9703 3.02641 19.5172 3.13836C17.0689 3.25012 15.3969 3.63897 13.9341 4.2075C12.4215 4.79526 11.1389 5.58175 9.86023 6.86041C8.58157 8.13906 7.79526 9.42167 7.2075 10.9341C6.63879 12.3971 6.25012 14.0691 6.13836 16.5172C6.02641 18.9703 6 19.7535 6 26C6 32.2465 6.02641 33.0297 6.13836 35.4828C6.25012 37.9311 6.63879 39.6031 7.2075 41.0659C7.79508 42.5783 8.58157 43.8611 9.86023 45.1398C11.1389 46.4184 12.4215 47.2047 13.9341 47.7925C15.3971 48.3612 17.0689 48.7499 19.517 48.8616C21.9703 48.9736 22.7535 49 29 49C35.2465 49 36.0297 48.9736 38.4828 48.8616C40.9309 48.7499 42.6029 48.3612 44.0657 47.7925C45.5783 47.2049 46.8609 46.4184 48.1396 45.1398C49.4183 43.8611 50.2047 42.5785 50.7925 41.0659C51.361 39.6029 51.7499 37.9311 51.8616 35.483C51.9736 33.0297 52 32.2465 52 26C52 19.7535 51.9736 18.9703 51.8616 16.5172C51.7499 14.0691 51.361 12.3971 50.7925 10.9343C50.2047 9.42167 49.4183 8.13906 48.1396 6.86041C46.8609 5.58175 45.5783 4.79508 44.0659 4.2075C42.6029 3.63897 40.9309 3.25012 38.4828 3.13836C36.0297 3.02641 35.2465 3 29 3ZM29 14.1891C22.477 14.1891 17.1891 19.4773 17.1891 26C17.1891 32.523 22.477 37.8109 29 37.8109C35.5228 37.8109 40.8109 32.523 40.8109 26C40.8109 19.4772 35.5228 14.1891 29 14.1891ZM29 33.6667C24.7658 33.6667 21.3333 30.2342 21.3333 26C21.3333 21.7658 24.7658 18.3333 29 18.3333C33.2342 18.3333 36.6667 21.7658 36.6667 26C36.6667 30.2342 33.2342 33.6667 29 33.6667ZM44.0373 13.7225C44.0373 15.247 42.8018 16.4825 41.2773 16.4825C39.753 16.4825 38.5173 15.247 38.5173 13.7225C38.5173 12.1982 39.753 10.9625 41.2773 10.9625C42.8018 10.9625 44.0373 12.1982 44.0373 13.7225Z" fill="#656685"/>
</svg>
