<svg xmlns="http://www.w3.org/2000/svg" fill="none" viewBox="0 0 52 52"><g clip-path="url(#google-cloud_svg__a)"><path fill="url(#google-cloud_svg__b)" fill-rule="evenodd" d="M51.376 23.51 40.692 4.927a4.7 4.7 0 0 0-4.006-2.389H15.314a4.69 4.69 0 0 0-4.006 2.389L.62 23.46a4.66 4.66 0 0 0 0 4.648l10.684 18.687a4.78 4.78 0 0 0 4.006 2.474h21.372a4.76 4.76 0 0 0 4.01-2.462l10.684-18.582a4.77 4.77 0 0 0 0-4.716M20.18 34.01l-2.14 2.141-4.286-4.285V19.75l4.286-4.285 2.14 2.14-3.209 3.21v9.987zm2.693-8.203a1.518 1.518 0 1 1-3.035 0 1.518 1.518 0 0 1 3.035 0m4.547 0a1.518 1.518 0 1 1-3.035 0 1.518 1.518 0 0 1 3.035 0m4.537 0a1.518 1.518 0 1 1-3.035 0 1.518 1.518 0 0 1 3.035 0m-.367-8.202 2.14-2.141 4.286 4.285v12.117l-4.285 4.285-2.141-2.14 3.209-3.21v-9.987z" clip-rule="evenodd"/></g><defs><linearGradient id="google-cloud_svg__b" x1="39.5" x2="15" y1="2.999" y2="48.999" gradientUnits="userSpaceOnUse"><stop stop-color="#313140"/><stop offset="1" stop-color="#2F2F3C"/></linearGradient><clipPath id="google-cloud_svg__a"><path fill="#fff" d="M0 0h52v52H0z"/></clipPath></defs></svg>