<svg viewBox="0 0 69 52" fill="none" xmlns="http://www.w3.org/2000/svg">
<path d="M2.97407 18.271C2.97407 19.3626 1.82143 21.0112 0.667575 21.5697L0 21.893V24.2457H1.75553L1.81091 26.8853C1.90199 31.2332 2.51522 31.9597 6.20845 32.0958L8.03022 32.1631V29.153H7.0568C5.47481 29.153 5.35337 28.9524 5.35337 26.3343V24.2457H7.88152V21.4203H5.35337V18H4.16381C3.11207 18 2.97407 18.0314 2.97407 18.271ZM40.8944 19.1897V20.3793H42.3815V32.1272H45.653V31.7553C45.653 31.3039 45.6497 31.3041 46.3423 31.7125C47.2683 32.2588 49.414 32.2865 50.4787 31.7655C52.2503 30.8987 52.8654 29.593 52.8654 26.6993C52.8654 23.0215 51.5401 21.4076 48.5356 21.4267C47.6288 21.4326 47.1534 21.5368 46.2107 21.9366C45.9702 22.0386 45.9504 21.8935 45.9504 20.0234V18H40.8944V19.1897ZM53.2371 19.1897V20.3793H54.7241V29.7478H53.5345V32.1272H59.4828V29.7478H58.1444V18H53.2371V19.1897ZM9.24703 25.3238C9.30706 29.7616 9.42902 30.3082 10.5782 31.2918C11.9375 32.4553 15.0282 32.4141 16.3042 31.2154L16.6552 30.8856V32.1272H20.6703V29.7478H19.6293V21.4203H14.8707V23.9483H16.2091V25.8962C16.2091 28.61 15.8063 29.3017 14.2266 29.3017C12.9855 29.3017 12.9375 29.1409 12.9375 24.9692V21.4203H9.19425L9.24703 25.3238ZM21.5625 22.6842V23.9483H23.0496V29.7478H21.8599V32.1272H27.6595V29.7478H26.4698V27.8099C26.4698 25.0923 26.8082 24.4182 28.2417 24.2806C29.5886 24.151 29.7414 24.4651 29.7414 27.3617V29.7478H28.5517V32.1272H34.5V29.7478H33.3103V27.6586C33.3103 26.082 33.3656 25.4622 33.5359 25.133C33.9994 24.2369 35.3399 23.9594 36.0903 24.6042L36.5076 24.9628L36.555 27.3554L36.6024 29.7478H35.3922V32.1272H41.1918V29.7478H40.0022V27.2369C40.0022 24.1703 39.828 23.4684 38.8166 22.4571C37.4266 21.0672 34.5179 21.0279 33.0846 22.3798L32.5747 22.8605L32.2361 22.4926C30.977 21.1236 28.2536 21.0424 26.4591 22.3203L26.0237 22.6302V21.4203H21.5625V22.6842ZM60.375 22.6842V23.9483H61.7134V29.7478H60.5237V32.1272H66.3233V29.7478H65.0934L65.1645 27.9058C65.2702 25.1593 65.7751 24.5431 67.9196 24.5431H69V21.4203H67.9543C66.7865 21.4203 66.0173 21.6767 65.3939 22.2739L64.9849 22.6656V21.4203H60.375V22.6842ZM48.5508 24.4194C49.6733 25.3024 49.6698 28.4818 48.5455 29.2185C47.0973 30.1673 45.6745 28.7355 45.8351 26.491C45.978 24.4946 47.3326 23.4612 48.5508 24.4194Z" fill="#656685"/>
</svg>
