<svg viewBox="0 0 69 52" fill="none" xmlns="http://www.w3.org/2000/svg">
<path d="M62.6471 11.577C62.3031 10.3057 61.6321 9.14681 60.7009 8.21557C59.7697 7.28434 58.6108 6.61328 57.3396 6.26924C52.6857 5 33.9554 5 33.9554 5C33.9554 5 15.2241 5.03842 10.5702 6.30766C9.29898 6.65172 8.14006 7.32281 7.20886 8.25409C6.27766 9.18537 5.60668 10.3443 5.26273 11.6156C3.85504 19.8847 3.30897 32.4848 5.30138 40.423C5.64537 41.6943 6.31637 42.8532 7.24756 43.7844C8.17876 44.7157 9.33766 45.3867 10.6089 45.7308C15.2627 47 33.9936 47 33.9936 47C33.9936 47 52.7241 47 57.3778 45.7308C58.649 45.3868 59.808 44.7157 60.7392 43.7845C61.6704 42.8532 62.3415 41.6943 62.6855 40.423C64.1703 32.1423 64.6278 19.5499 62.6471 11.577Z" fill="#4C4D62"/>
<path d="M27.9935 34.9989L43.5318 25.999L27.9935 16.999V34.9989Z" fill="white"/>
<path d="M27.9935 34.9989L43.5318 25.999L27.9935 16.999V34.9989Z" fill="#717395"/>
</svg>
