<svg viewBox="0 0 53 52" fill="none" xmlns="http://www.w3.org/2000/svg">
<path d="M47 13.0405C45.4545 13.7258 43.7939 14.189 42.0509 14.3973C43.8301 13.3309 45.1963 11.6422 45.8396 9.63016C44.1482 10.6339 42.2977 11.3411 40.3679 11.7211C38.7961 10.0466 36.5568 9 34.0783 9C29.3195 9 25.4612 12.8581 25.4612 17.6166C25.4612 18.292 25.5375 18.9496 25.6843 19.5804C18.523 19.2209 12.1738 15.7905 7.92376 10.5773C7.1822 11.8499 6.75727 13.3303 6.75727 14.9092C6.75727 17.8988 8.27863 20.5361 10.5906 22.0814C9.22223 22.0385 7.88397 21.6689 6.68755 21.0035C6.68705 21.0396 6.68705 21.0757 6.68705 21.1119C6.68705 25.2868 9.65724 28.7695 13.599 29.5611C12.3301 29.9062 10.9992 29.9567 9.70777 29.7088C10.8042 33.1321 13.9865 35.6232 17.757 35.693C14.808 38.004 11.0925 39.3816 7.05554 39.3816C6.35991 39.3816 5.67413 39.3407 5 39.2612C8.8133 41.706 13.3426 43.1325 18.2087 43.1325C34.0583 43.1325 42.7252 30.0025 42.7252 18.6159C42.7252 18.2421 42.717 17.8705 42.7003 17.5011C44.3872 16.2816 45.8432 14.7711 47 13.0405Z" fill="#656685"/>
</svg>
