<svg viewBox="0 0 66 52" fill="none" xmlns="http://www.w3.org/2000/svg">
<path d="M54 26.9044C54 25.1425 53.857 23.8568 53.5476 22.5234H33.4286V30.4757H45.238C45 32.452 43.7143 35.4282 40.8571 37.4281L40.817 37.6943L47.1783 42.6223L47.619 42.6663C51.6666 38.9282 54 33.4281 54 26.9044Z" fill="#4285F4"/>
<path d="M54 26.9044C54 25.1425 53.857 23.8568 53.5476 22.5234H33.4286V30.4757H45.238C45 32.452 43.7143 35.4282 40.8571 37.4281L40.817 37.6943L47.1783 42.6223L47.619 42.6663C51.6666 38.9282 54 33.4281 54 26.9044Z" fill="#40414E"/>
<path d="M33.4286 47.8575C39.2142 47.8575 44.0713 45.9526 47.619 42.667L40.8571 37.4288C39.0476 38.6907 36.619 39.5716 33.4286 39.5716C27.7619 39.5716 22.9524 35.8337 21.238 30.667L20.9867 30.6883L14.3721 35.8074L14.2856 36.0479C17.8094 43.0478 25.0475 47.8575 33.4286 47.8575Z" fill="#34A853"/>
<path d="M33.4286 47.8575C39.2142 47.8575 44.0713 45.9526 47.619 42.667L40.8571 37.4288C39.0476 38.6907 36.619 39.5716 33.4286 39.5716C27.7619 39.5716 22.9524 35.8337 21.238 30.667L20.9867 30.6883L14.3721 35.8074L14.2856 36.0479C17.8094 43.0478 25.0475 47.8575 33.4286 47.8575Z" fill="#585A73"/>
<path d="M21.238 30.6666C20.7856 29.3332 20.5238 27.9046 20.5238 26.4284C20.5238 24.9522 20.7856 23.5237 21.2142 22.1903L21.2022 21.9064L14.5048 16.7051L14.2857 16.8093C12.8333 19.7141 12 22.9761 12 26.4284C12 29.8808 12.8333 33.1426 14.2857 36.0474L21.238 30.6666Z" fill="#FBBC05"/>
<path d="M21.238 30.6666C20.7856 29.3332 20.5238 27.9046 20.5238 26.4284C20.5238 24.9522 20.7856 23.5237 21.2142 22.1903L21.2022 21.9064L14.5048 16.7051L14.2857 16.8093C12.8333 19.7141 12 22.9761 12 26.4284C12 29.8808 12.8333 33.1426 14.2857 36.0474L21.238 30.6666Z" fill="#717395"/>
<path d="M33.4286 13.2857C37.4523 13.2857 40.1665 15.0237 41.7142 16.4762L47.7618 10.5714C44.0476 7.11906 39.2142 5 33.4286 5C25.0475 5 17.8094 9.80949 14.2856 16.8094L21.2142 22.1905C22.9524 17.0238 27.7619 13.2857 33.4286 13.2857Z" fill="#9596BB"/>
</svg>
