<svg xmlns="http://www.w3.org/2000/svg" fill="none" viewBox="0 0 54 52"><path fill="url(#azur-web_svg__a)" d="M26.705 51.678a25.57 25.57 0 0 0 15.58-5.291 26 26 0 0 0 2.248-1.934c-2.576-.005-6.023-.17-9.958-1.047a5 5 0 0 1-1.138 1.25 5.134 5.134 0 0 1-7.173-.945 5.1 5.1 0 0 1-.994-3.614 42.8 42.8 0 0 1-7.483-4.77 66 66 0 0 1-2.08-1.758 7.7 7.7 0 0 1-3.578.582c-1.746 4.69-1.945 8.858-1.76 11.683l-.099-.08c4.684 3.9 10.535 5.924 16.435 5.924"/><path fill="url(#azur-web_svg__b)" d="M5.617 40.68a39 39 0 0 1 1.494-8.884 8 8 0 0 1-.574-.663 7.75 7.75 0 0 1 .005-9.404c-1.765-4.248-1.623-7.784-1.038-10.261-5.918 8.611-6.13 20.27.113 29.211"/><path fill="url(#azur-web_svg__c)" d="M8.28 8.09c-.357 2.103-.507 6.092 1.786 11.04a7.75 7.75 0 0 1 4.229-.289q.424-.485.865-.957c2.333-2.467 4.861-4.59 7.133-6.18l-.006-.005-.012-.011c-2.708-2.878-5.114-5.827-6.907-8.75A25.5 25.5 0 0 0 11.08 5.61a26 26 0 0 0-2.8 2.48"/><path fill="url(#azur-web_svg__d)" d="M18.783 1.554A25.6 25.6 0 0 1 26.657.32c5.888 0 11.726 2.016 16.405 5.9-3.972-.606-10.122-.526-17.147 3.21l-.002-.003a205 205 0 0 1-7.13-7.873"/><path fill="url(#azur-web_svg__e)" d="M46.774 10.021c-.485-.045-7.017-.545-16.073 4.326 3.03 3.01 5.903 5.7 8.519 8.047a5.506 5.506 0 0 1 7.124 1.415c1.199 1.572 1.406 3.586.75 5.312 2 1.622 3.383 2.687 4.407 3.448q-.112.414-.23.82c2.285-7.62 1.006-16.19-4.204-22.991a27 27 0 0 0-.293-.377"/><path fill="url(#azur-web_svg__f)" d="M50.846 34.681q-.016.045-.033.089l-5.162-3.554q-.065.06-.126.123a2 2 0 0 1-.213.195 5.53 5.53 0 0 1-7.746-1.031l-.001-.002c-1.295-1.693-1.429-3.893-.578-5.699-3.218-2.51-6.618-5.32-9.821-8.286l-.245-.233q.053.052.105.105.067.068.137.134c-2.089 1.426-4.321 3.2-6.695 5.419l-.895.88a7.79 7.79 0 0 1-.327 7.756q.687.588 1.396 1.148c2.397 1.9 4.721 3.409 6.941 4.613 2.211-1.423 5.177-.963 6.798 1.164.474.62.769 1.317.923 2.034 6.385 1.835 11.058 1.193 12.634.863-.137.2-.286.417-.444.642a25.6 25.6 0 0 0 3.352-6.36"/><defs><linearGradient id="azur-web_svg__a" x1="7" x2="46.5" y1="4.999" y2="51.999" gradientUnits="userSpaceOnUse"><stop stop-color="#333341"/><stop offset="1" stop-color="#2D2D3A"/></linearGradient><linearGradient id="azur-web_svg__b" x1="7" x2="46.5" y1="4.999" y2="51.999" gradientUnits="userSpaceOnUse"><stop stop-color="#333341"/><stop offset="1" stop-color="#2D2D3A"/></linearGradient><linearGradient id="azur-web_svg__c" x1="7" x2="46.5" y1="4.999" y2="51.999" gradientUnits="userSpaceOnUse"><stop stop-color="#333341"/><stop offset="1" stop-color="#2D2D3A"/></linearGradient><linearGradient id="azur-web_svg__d" x1="7" x2="46.5" y1="4.999" y2="51.999" gradientUnits="userSpaceOnUse"><stop stop-color="#333341"/><stop offset="1" stop-color="#2D2D3A"/></linearGradient><linearGradient id="azur-web_svg__e" x1="7" x2="46.5" y1="4.999" y2="51.999" gradientUnits="userSpaceOnUse"><stop stop-color="#333341"/><stop offset="1" stop-color="#2D2D3A"/></linearGradient><linearGradient id="azur-web_svg__f" x1="7" x2="46.5" y1="4.999" y2="51.999" gradientUnits="userSpaceOnUse"><stop stop-color="#333341"/><stop offset="1" stop-color="#2D2D3A"/></linearGradient></defs></svg>