<svg viewBox="0 0 44 52" fill="none" xmlns="http://www.w3.org/2000/svg">
<g clip-path="url(#clip0_39_80)">
<path d="M6.10352e-05 26.0003C6.10352e-05 35.0089 5.4172 42.748 13.1689 46.1506C13.107 44.6144 13.1579 42.7702 13.5518 41.0987C13.9748 39.3128 16.3826 29.1108 16.3826 29.1108C16.3826 29.1108 15.6798 27.7061 15.6798 25.63C15.6798 22.3698 17.5694 19.9348 19.9227 19.9348C21.9238 19.9348 22.8906 21.4379 22.8906 23.2377C22.8906 25.2493 21.6076 28.2583 20.9478 31.0453C20.3966 33.379 22.1179 35.2825 24.4201 35.2825C28.5884 35.2825 31.3958 29.9288 31.3958 23.5856C31.3958 18.7638 28.1483 15.1548 22.2415 15.1548C15.5679 15.1548 11.4105 20.1316 11.4105 25.6907C11.4105 27.6075 11.9756 28.9591 12.8607 30.0058C13.2677 30.4865 13.3243 30.6799 13.177 31.2319C13.0714 31.6367 12.8291 32.6112 12.7287 32.9974C12.5823 33.5546 12.1308 33.7539 11.6272 33.5481C8.55339 32.2933 7.12185 28.9271 7.12185 25.1431C7.12185 18.8936 12.3925 11.3999 22.8453 11.3999C31.2448 11.3999 36.7731 17.478 36.7731 24.0026C36.7731 32.6329 31.975 39.0804 24.9024 39.0804C22.5273 39.0804 20.2931 37.7965 19.5277 36.3382C19.5277 36.3382 18.2505 41.4071 17.98 42.3859C17.5135 44.0821 16.6005 45.7775 15.7657 47.0989C17.79 47.6974 19.8899 48.0012 22.0008 48.001C34.1496 48.001 44.0001 38.1511 44.0001 26.0003C44.0001 13.8499 34.1496 4 22.0008 4C9.85087 4 6.10352e-05 13.8499 6.10352e-05 26.0003Z" fill="#656685"/>
</g>
<defs>
<clipPath id="clip0_39_80">
<rect width="44" height="52" fill="white"/>
</clipPath>
</defs>
</svg>
