<svg viewBox="0 0 69 52" fill="none" xmlns="http://www.w3.org/2000/svg">
<g clip-path="url(#clip0_39_44)">
<path fill-rule="evenodd" clip-rule="evenodd" d="M66.8405 16.1729H39.0807C38.2171 16.2705 37.742 16.8028 37.6581 17.7745V33.854C37.7412 34.8243 38.2152 35.3545 39.073 35.4561H66.8473C67.7055 35.3545 68.1791 34.8239 68.2624 33.854V17.7745C68.1787 16.8028 67.7036 16.2705 66.8405 16.1729Z" fill="#4C4D62"/>
<path fill-rule="evenodd" clip-rule="evenodd" d="M47.3208 23.582C47.113 23.2856 46.8044 23.0415 46.3941 22.8507C46.0232 22.6783 45.6117 22.5844 45.1594 22.5678C45.1516 22.5673 45.1445 22.5668 45.1368 22.5665C44.2027 22.5163 43.0078 22.791 42.4502 23.3317V19.543H40.2338V31.1988H42.4502V26.9695C42.4502 26.2589 42.5175 25.7223 42.6515 25.3594C42.7858 24.9957 42.9971 24.7242 43.2865 24.544C43.5757 24.364 43.9042 24.2736 44.2725 24.2736C44.5931 24.2736 44.8604 24.344 45.0731 24.4844C45.286 24.6251 45.4347 24.8146 45.5186 25.053C45.6025 25.2918 45.6449 25.8533 45.6449 26.7384V31.1988H47.8611V26.2455C47.8611 25.4877 47.8229 24.9284 47.7466 24.5682C47.6705 24.2075 47.5282 23.8789 47.3208 23.582Z" fill="#9596BB"/>
<path fill-rule="evenodd" clip-rule="evenodd" d="M54.5531 26.3168C54.5531 27.5254 54.4981 28.2848 54.3876 28.5949C54.2771 28.9048 54.072 29.1648 53.7722 29.3735C53.4729 29.5835 53.1334 29.6879 52.7548 29.6879C52.4236 29.6879 52.1498 29.61 51.9343 29.4535C51.7189 29.2972 51.5699 29.0851 51.4887 28.8173C51.4071 28.5496 51.3665 27.8224 51.3665 26.6347V22.7549H49.1501V28.0979C49.1501 28.8929 49.25 29.5158 49.4494 29.9662C49.6494 30.417 49.9728 30.7668 50.42 31.0159C50.867 31.2651 51.3716 31.3896 51.9343 31.3896C52.0185 31.3896 52.1019 31.3866 52.1846 31.3803C52.1872 31.3803 52.189 31.3803 52.1912 31.38C53.6019 31.3389 54.3368 30.6938 54.7108 30.2685V31.1985H56.7694V22.7549H54.5531V26.3168Z" fill="#9596BB"/>
<path fill-rule="evenodd" clip-rule="evenodd" d="M63.5174 28.9927C63.1731 29.4142 62.7563 29.6244 62.2672 29.6244C61.6307 29.6244 61.1207 29.3276 60.7366 28.734C60.4634 28.3154 60.3266 27.6687 60.3266 26.7941C60.3266 25.946 60.5028 25.3141 60.8552 24.898C61.2075 24.482 61.6492 24.274 62.1804 24.274C62.722 24.274 63.1665 24.4873 63.5136 24.9138C63.8606 25.3404 64.0342 26.0364 64.0342 27.0005C64.0342 27.9075 63.8621 28.5709 63.5174 28.9927ZM65.304 23.6812C64.8326 23.1565 64.2 22.8197 63.5106 22.6649C63.3132 22.612 63.0877 22.5743 62.8369 22.5634C61.9254 22.4798 60.7545 22.8473 60.2102 23.3079L60.3422 19.543H58.1255V31.1991H60.1847V30.5571C60.6594 30.9424 61.4212 31.3898 62.5823 31.3898C62.6277 31.3898 62.671 31.3894 62.7127 31.3884C62.743 31.3894 62.773 31.3898 62.8033 31.3898C63.7762 31.3898 64.6033 31 65.2841 30.2211C65.9651 29.4415 66.3053 28.3315 66.3053 26.8898C66.3053 25.4954 65.9714 24.4262 65.304 23.6812Z" fill="#9596BB"/>
<path fill-rule="evenodd" clip-rule="evenodd" d="M6.50876 23.4737C6.32356 23.747 6.06785 23.9478 5.74146 24.0757C5.41507 24.2038 4.76754 24.268 3.79992 24.268H2.45578V20.789H3.64241C4.52729 20.789 5.11636 20.8171 5.40963 20.8726C5.80789 20.9454 6.13683 21.1264 6.39696 21.4162C6.65675 21.7063 6.7869 22.074 6.7869 22.5201C6.7869 22.8825 6.69413 23.2004 6.50876 23.4737ZM6.86156 18.899C6.40808 18.7762 5.43451 18.7148 3.94101 18.7148H0V30.9752H2.45585V26.3506H4.05706C5.16894 26.3506 6.01798 26.2919 6.60416 26.1749C7.03606 26.08 7.46032 25.8861 7.87813 25.5937C8.29539 25.3011 8.63963 24.8981 8.91101 24.3849C9.182 23.8725 9.31758 23.2396 9.31758 22.4866C9.31758 21.5111 9.0823 20.7152 8.61226 20.099C8.142 19.4831 7.55836 19.0829 6.86156 18.899Z" fill="#717395"/>
<path fill-rule="evenodd" clip-rule="evenodd" d="M15.8946 28.5589C15.4822 29.0272 14.9719 29.2613 14.3637 29.2613C13.755 29.2613 13.2434 29.0272 12.8285 28.5589C12.4138 28.0904 12.2065 27.4156 12.2065 26.535C12.2065 25.654 12.4138 24.9794 12.8285 24.5109C13.2434 24.0427 13.755 23.8086 14.3637 23.8086C14.9719 23.8086 15.4822 24.0427 15.8946 24.5109C16.3066 24.9794 16.5125 25.6487 16.5125 26.5183C16.5125 27.4106 16.3066 28.0904 15.8946 28.5589ZM14.3552 21.8936C13.4924 21.8936 12.7112 22.0857 12.0117 22.4707C11.3114 22.8552 10.7711 23.4127 10.3894 24.1431C10.0077 24.8735 9.8168 25.6289 9.8168 26.4096C9.8168 27.4298 10.0077 28.2955 10.3894 29.0061C10.7711 29.7172 11.3281 30.2566 12.0613 30.6242C12.7941 30.9921 13.5644 31.1767 14.372 31.1767C15.6773 31.1767 16.7601 30.7345 17.6202 29.8508C18.4802 28.9673 18.9104 27.8535 18.9104 26.5094C18.9104 25.1773 18.4846 24.0746 17.6328 23.2023C16.7806 22.3299 15.6883 21.8936 14.3552 21.8936Z" fill="#717395"/>
<path fill-rule="evenodd" clip-rule="evenodd" d="M23.8641 21.9273C23.1743 22.0162 22.5151 22.5772 22.2266 22.9343V22.0939H20.0609V30.9754H22.3924V28.2329C22.3924 26.7216 22.4571 25.7293 22.5873 25.2553C22.7172 24.7812 22.8956 24.4541 23.1225 24.2726C23.3493 24.0915 23.6259 24.0008 23.9525 24.0008C24.2896 24.0008 24.6545 24.1287 25.0474 24.3853L25.7694 22.3364C25.2771 22.0408 24.7652 21.8936 24.2342 21.8936C24.1061 21.8936 23.9829 21.9054 23.8641 21.9273Z" fill="#717395"/>
<path fill-rule="evenodd" clip-rule="evenodd" d="M34.9729 23.8767C34.8871 23.5088 34.7352 23.1797 34.517 22.8897C34.298 22.5998 33.9758 22.3615 33.5501 22.1749C33.124 21.988 32.654 21.8949 32.1393 21.8949C31.2065 21.8414 29.693 22.2004 29.2356 22.9303V22.0952H27.0702V30.9768H29.4016V26.9543C29.4016 25.962 29.461 25.2816 29.5799 24.9141C29.6986 24.5457 29.9188 24.2504 30.2396 24.0271C30.5604 23.8041 30.9226 23.6926 31.3263 23.6926C31.6417 23.6926 31.9112 23.771 32.1353 23.9267C32.3596 24.0827 32.5215 24.3019 32.6209 24.5833C32.7204 24.8652 32.7702 25.4852 32.7702 26.4441V30.9768H35.1014V25.4573C35.1014 24.7714 35.0585 24.2446 34.9729 23.8767Z" fill="#717395"/>
</g>
<defs>
<clipPath id="clip0_39_44">
<rect width="69" height="19.7143" fill="white" transform="translate(0 16)"/>
</clipPath>
</defs>
</svg>
