<svg viewBox="0 0 101 24" fill="none" xmlns="http://www.w3.org/2000/svg">
<path fill-rule="evenodd" clip-rule="evenodd" d="M6.44485 11.7923L12.1697 3H9.79897C9.11995 3 8.56971 3.31526 8.14825 3.94579L5.19802 8.84987L3.67023 4.31359C3.28389 3.43786 2.67511 3 1.84389 3H0L3.21364 11.7923L2.31804 18.1501H5.54924L6.44485 11.7923ZM37.483 12.9833L38.9757 5.25938C39.0459 4.88574 38.964 4.5588 38.7298 4.27857C38.4957 3.99833 38.1971 3.85822 37.8342 3.85822H36.6928C36.3884 3.85822 36.125 3.9633 35.9025 4.17348C35.6801 4.37198 35.5513 4.62302 35.5162 4.9266L34.603 12.7556C34.5796 12.9775 34.6381 13.1701 34.7786 13.3336C34.9308 13.4854 35.1123 13.5613 35.323 13.5613H36.7454C36.9211 13.5613 37.0732 13.5088 37.202 13.4037C37.3425 13.2986 37.4362 13.1585 37.483 12.9833ZM34.3045 15.0325C34.0703 15.2544 33.9181 15.7214 33.8479 16.4337C33.7191 17.1343 33.7425 17.5955 33.9181 17.8173C34.0938 18.0509 34.5796 18.1676 35.3757 18.1676C36.1718 18.1676 36.6869 18.0509 36.9211 17.8173C37.1669 17.5955 37.325 17.1343 37.3952 16.4337C37.524 15.7214 37.5006 15.2544 37.325 15.0325C37.1493 14.8107 36.6635 14.6997 35.8674 14.6997C35.0713 14.6997 34.5503 14.8107 34.3045 15.0325ZM32.7279 12.0025C32.8333 11.1968 32.8567 10.4379 32.7982 9.72561C32.7396 9.01335 32.5757 8.3945 32.3065 7.86906C32.0372 7.33195 31.645 6.9116 31.1299 6.60801C30.6265 6.29275 29.9826 6.13512 29.1982 6.13512C28.8119 6.13512 28.4489 6.17599 28.1094 6.25772C27.7699 6.33946 27.4304 6.46206 27.0909 6.62553C26.7514 6.789 26.4177 6.99333 26.0899 7.23854C26.0431 7.27357 25.9963 7.30276 25.9494 7.32611C25.8441 7.40785 25.7504 7.48374 25.6685 7.5538C25.5865 7.61218 25.4753 7.70559 25.3348 7.83403L25.5982 6.13512H23.9826C23.6314 6.13512 23.3153 6.27524 23.0343 6.55547C22.7651 6.82403 22.6012 7.13929 22.5426 7.50126L20.2597 24H22.2441C22.5485 24 22.806 23.9066 23.0168 23.7198C23.2392 23.5329 23.3738 23.2877 23.4207 22.9842L24.2987 16.6964C24.5211 16.9416 24.7377 17.1518 24.9485 17.3269C25.1709 17.5138 25.3933 17.6714 25.6158 17.7998C25.8382 17.9166 26.0782 18.0042 26.3358 18.0626C26.5816 18.1209 26.8626 18.1501 27.1787 18.1501C27.928 18.1501 28.6187 18.01 29.2509 17.7298C29.8714 17.4379 30.4157 17.0292 30.884 16.5038C31.3523 15.9666 31.7445 15.3186 32.0606 14.5596C32.365 13.8007 32.5874 12.9483 32.7279 12.0025ZM29.6372 10.8991C29.6372 11.3194 29.6079 11.7573 29.5494 12.2127C29.4909 12.6214 29.3914 13.0242 29.2509 13.4212C29.1104 13.8299 28.9289 14.1977 28.7065 14.5246C28.4841 14.8399 28.2206 15.0968 27.9163 15.2952C27.6119 15.4937 27.2606 15.593 26.8626 15.593C26.4528 15.593 26.0782 15.4529 25.7387 15.1726C25.3875 14.8807 25.0363 14.4662 24.685 13.9291L25.1943 10.4262C25.4753 10.0993 25.7387 9.8307 25.9846 9.62052C26.2304 9.39867 26.4646 9.22353 26.687 9.09508C26.9094 8.95497 27.126 8.85572 27.3367 8.79734C27.5358 8.73895 27.7348 8.70976 27.9338 8.70976C28.3319 8.70976 28.6538 8.80901 28.8997 9.00751C29.1455 9.19433 29.327 9.45121 29.444 9.77815C29.5611 10.1051 29.6255 10.4787 29.6372 10.8991ZM16.5013 15.7681C16.6067 15.7565 16.753 15.7214 16.9403 15.663C17.3033 15.5813 17.6369 15.6163 17.9413 15.7681C18.2574 15.9199 18.4915 16.1651 18.6437 16.5037L18.9423 17.1693C18.8603 17.216 18.7432 17.2744 18.591 17.3444H18.5559C18.4037 17.4028 18.1989 17.4787 17.9413 17.5721C17.6837 17.6772 17.4554 17.7531 17.2564 17.7998C16.8935 17.8932 16.472 17.975 15.992 18.045C15.5237 18.1151 15.032 18.1501 14.5169 18.1501C13.5686 18.1501 12.755 18.0275 12.076 17.7823C11.3969 17.5488 10.8526 17.1927 10.4428 16.7139C10.033 16.2235 9.76378 15.6105 9.635 14.8749C9.50622 14.1393 9.51207 13.2752 9.65256 12.2827C9.78134 11.3486 10.0272 10.5021 10.3901 9.74312C10.7413 8.98415 11.1862 8.34195 11.7247 7.81651C12.2633 7.29107 12.8896 6.88824 13.6038 6.608C14.3179 6.33945 15.0964 6.20517 15.9394 6.20517C16.8174 6.20517 17.555 6.33361 18.152 6.59049C18.7491 6.84737 19.2174 7.20934 19.5569 7.67639C19.8964 8.14345 20.1188 8.69224 20.2242 9.32276C20.3179 9.95329 20.312 10.6422 20.2066 11.3895L20.154 11.8624C20.0954 12.2243 19.9725 12.4929 19.7852 12.6681C19.5979 12.8432 19.3637 12.9308 19.0828 12.9308H12.6203C12.5501 13.3861 12.5443 13.7948 12.6028 14.1568C12.6613 14.5304 12.7843 14.8457 12.9716 15.1026C13.1706 15.3595 13.4457 15.5521 13.7969 15.6806C14.1481 15.8207 14.5813 15.8907 15.0964 15.8907C15.6233 15.8907 16.0916 15.8499 16.5013 15.7681ZM13.1999 9.95329C13.0594 10.2802 12.954 10.6305 12.8838 11.0042H17.3618C17.5023 10.1635 17.4262 9.50375 17.1335 9.02502C16.8408 8.54629 16.314 8.30692 15.553 8.30692C15.1784 8.30692 14.8389 8.37698 14.5345 8.51709C14.2301 8.66889 13.9725 8.86155 13.7618 9.09508C13.5394 9.34028 13.3521 9.62635 13.1999 9.95329Z" fill="white"/>
<rect width="51" height="21" transform="translate(42)" fill="white"><animate attributeName="width" from="0" to="51" dur=".65s" fill="freeze" /></rect>
<path fill-rule="evenodd" clip-rule="evenodd" d="M57.2893 3H48.9559C48.3939 3 47.9021 3.1963 47.4806 3.58891C47.0698 3.96998 46.8212 4.46074 46.7348 5.0612L45 18H48.0318L48.9397 11.4527H55.3762L55.7004 8.97575H49.264L49.7666 5.42494H56.0571C56.3382 5.42494 56.5759 5.33256 56.7705 5.14781C56.9759 4.9515 57.1056 4.70901 57.1596 4.42032L57.2893 3ZM84.9519 6.10047H82.6544L82.9481 3.69285H81.048C80.7255 3.69285 80.4434 3.79677 80.2016 4.00463C79.9712 4.21248 79.8331 4.48384 79.787 4.81871L79.6142 6.10047H78.716C78.4396 6.10047 78.1978 6.19285 77.9905 6.3776C77.7947 6.55081 77.6738 6.77599 77.6278 7.05312L77.3859 8.57737H79.2688L78.4914 14.1201C78.3993 14.7783 78.3878 15.3499 78.4569 15.8349C78.526 16.3199 78.6815 16.7182 78.9233 17.03C79.1766 17.3534 79.5106 17.5901 79.9252 17.7402C80.3513 17.9019 80.8637 17.9827 81.4626 17.9827C81.6929 17.9827 81.9174 17.9711 82.1362 17.948C82.3666 17.9134 82.5796 17.8788 82.7754 17.8441C82.8214 17.8326 82.9366 17.7922 83.1208 17.7229C83.3166 17.6651 83.5239 17.5958 83.7427 17.515C83.9615 17.4342 84.14 17.3591 84.2782 17.2898L83.95 16.2333C83.8694 15.9677 83.7197 15.7656 83.5009 15.627C83.2821 15.4769 83.0345 15.4134 82.7581 15.4365C82.5393 15.4711 82.3262 15.4654 82.119 15.4192C81.9117 15.373 81.7447 15.2517 81.618 15.0554C81.4798 14.7437 81.4683 14.276 81.5835 13.6524L82.309 8.57737H83.3109C83.6679 8.56583 83.9788 8.45035 84.2436 8.23095C84.5085 8.01155 84.6697 7.72287 84.7273 7.3649L84.9519 6.10047ZM75.5241 12.9942C75.4205 12.6247 75.265 12.3072 75.0577 12.0416C74.8504 11.776 74.6086 11.545 74.3322 11.3487C74.0674 11.164 73.791 11.0023 73.5031 10.8637C73.2497 10.7367 72.9849 10.6097 72.7085 10.4827C72.4782 10.3788 72.2651 10.2575 72.0693 10.1189C71.9196 10.015 71.8045 9.89954 71.7239 9.77252C71.6663 9.65704 71.6433 9.52425 71.6548 9.37413C71.6778 9.25866 71.7239 9.14319 71.793 9.02771C71.839 8.92379 71.9139 8.83141 72.0175 8.75058C72.0981 8.68129 72.2075 8.62933 72.3457 8.59469C72.4954 8.53695 72.6739 8.50808 72.8812 8.50808C73.1115 8.54272 73.3419 8.59469 73.5722 8.66397C74.1595 8.83718 74.6028 8.82563 74.9023 8.62933C75.2017 8.42148 75.4032 8.1963 75.5068 7.95381L75.9387 7.00115L75.6796 6.82794C75.5875 6.78175 75.5069 6.73556 75.4378 6.68938L75.265 6.58545L75.2477 6.56813C75.075 6.4873 74.8735 6.40647 74.6432 6.32563C74.4128 6.25635 74.171 6.20439 73.9177 6.16975C73.1576 6.04272 72.386 6.08891 71.603 6.30831C71.1078 6.44688 70.6644 6.65473 70.2729 6.93187C69.8698 7.22055 69.5358 7.57275 69.271 7.98845C68.9946 8.38106 68.8046 8.84873 68.7009 9.39145C68.6434 9.88799 68.6664 10.3152 68.77 10.6732C68.8622 11.0427 69.0119 11.366 69.2192 11.6432C69.4149 11.9203 69.651 12.1513 69.9274 12.336C70.1923 12.5208 70.4629 12.6767 70.7393 12.8037C71.0041 12.9538 71.269 13.0866 71.5339 13.2021C71.7757 13.3176 71.9772 13.433 72.1384 13.5485C72.2881 13.664 72.4091 13.791 72.5012 13.9296C72.5703 14.0335 72.5933 14.1605 72.5703 14.3106C72.5357 14.4838 72.4839 14.6397 72.4148 14.7783C72.3342 14.9053 72.2421 15.0092 72.1384 15.0901C72.0003 15.1824 71.839 15.2575 71.6548 15.3152C71.459 15.3614 71.246 15.3845 71.0156 15.3845C70.6586 15.3845 70.3535 15.3499 70.1001 15.2806L69.9965 15.246L69.9447 15.2286C69.5301 15.1016 69.1328 15.142 68.7528 15.3499C68.3958 15.5577 68.1309 15.858 67.9582 16.2506L67.6991 16.8568L67.82 17.03C67.9006 17.1455 68.033 17.2552 68.2173 17.3591C68.3785 17.4746 68.5915 17.5785 68.8564 17.6709C69.0982 17.7633 69.3804 17.8383 69.7028 17.8961C70.0368 17.9654 70.3995 18 70.7911 18C71.3669 18 71.9254 17.9249 72.4666 17.7748C72.9964 17.6132 73.48 17.3764 73.9177 17.0647C74.3437 16.7413 74.7007 16.3545 74.9886 15.9042C75.288 15.4307 75.4781 14.8822 75.5587 14.2587C75.6393 13.7737 75.6278 13.3522 75.5241 12.9942ZM66.7877 10.2921L65.6995 18H64.3521C64.0642 18 63.8282 17.8903 63.6439 17.6709C63.4596 17.463 63.3905 17.1628 63.4366 16.7702L63.4712 16.5104C62.976 16.9723 62.4347 17.336 61.8474 17.6016C61.2601 17.8556 60.6267 17.9827 59.9473 17.9827C59.3945 17.9827 58.8936 17.9134 58.4445 17.7748C58.0069 17.6247 57.6383 17.4053 57.3389 17.1166C57.0395 16.8395 56.8207 16.4873 56.6825 16.06C56.5559 15.6328 56.5328 15.1363 56.6134 14.5704C56.7056 13.9584 56.9013 13.4272 57.2007 12.9769C57.5002 12.5266 57.909 12.1513 58.4272 11.851C58.9339 11.5623 59.55 11.3487 60.2755 11.2102C61.001 11.0716 61.8301 11.0023 62.7629 11.0023H63.7821L63.8685 10.3614C63.9145 10.0266 63.926 9.73787 63.903 9.49537C63.8685 9.24133 63.7878 9.03348 63.6612 8.87182C63.523 8.71015 63.333 8.58891 63.0911 8.50808C62.8493 8.42724 62.5441 8.38683 62.1756 8.38683C61.6804 8.38683 61.2313 8.44457 60.8283 8.56004C60.4252 8.66397 60.0624 8.78521 59.74 8.92378C59.5327 9.00461 59.3369 8.99884 59.1527 8.90646C58.9684 8.81408 58.8475 8.65819 58.7899 8.43879L58.5481 7.26096C58.6748 7.15704 58.8648 7.04734 59.1181 6.93186C59.4176 6.7933 59.7573 6.66628 60.1373 6.5508C60.5173 6.42378 60.9319 6.32563 61.381 6.25634C61.8301 6.17551 62.285 6.1351 62.7457 6.1351C63.5633 6.1351 64.2542 6.21593 64.8185 6.37759C65.3828 6.53925 65.8262 6.78752 66.1486 7.1224C66.4826 7.45727 66.6956 7.89029 66.7877 8.42147C66.8914 8.9411 66.8914 9.56466 66.7877 10.2921ZM63.2811 14.6397L63.523 12.8556H62.4002C61.9165 12.8556 61.5019 12.8903 61.1565 12.9596C60.811 13.0289 60.5231 13.1328 60.2928 13.2714C60.0624 13.4215 59.884 13.5947 59.7573 13.791C59.6306 13.9873 59.55 14.2182 59.5154 14.4838C59.4579 14.9226 59.55 15.269 59.7918 15.5231C60.0337 15.7656 60.4022 15.8868 60.8974 15.8868C61.3119 15.8868 61.7092 15.7829 62.0893 15.575C62.4578 15.3672 62.8551 15.0554 63.2811 14.6397Z" fill="#070709"/>
<path d="M86.4303 16.2852C86.4994 15.5808 86.6491 15.1189 86.8794 14.8995C87.1212 14.6801 87.6337 14.5704 88.4168 14.5704C89.1999 14.5704 89.6778 14.6801 89.8505 14.8995C90.0233 15.1189 90.0463 15.5808 89.9196 16.2852C89.8505 16.9781 89.6951 17.4342 89.4532 17.6536C89.2229 17.8845 88.7162 18 87.9331 18C87.15 18 86.6721 17.8845 86.4994 17.6536C86.3266 17.4342 86.3036 16.9781 86.4303 16.2852Z" fill="#070709"><animate attributeName="opacity" dur=".9s" values="0;1;0" repeatCount="indefinite" /></path>
</svg>
